<svg xmlns="http://www.w3.org/2000/svg" width="31.491" height="34.308" viewBox="0 0 31.491 34.308">
  <g id="Group_6" data-name="Group 6" transform="translate(-265.408 -676.713)">
    <g id="Group_5" data-name="Group 5" transform="translate(267.378 703.344)">
      <circle id="Ellipse_1" data-name="Ellipse 1" cx="2.435" cy="2.435" r="2.435" transform="matrix(0.385, -0.923, 0.923, 0.385, 0, 4.496)" fill="none" stroke="#b4bed5" stroke-miterlimit="10" stroke-width="2"/>
      <circle id="Ellipse_2" data-name="Ellipse 2" cx="2.435" cy="2.435" r="2.435" transform="matrix(0.385, -0.923, 0.923, 0.385, 16.699, 4.496)" fill="none" stroke="#b4bed5" stroke-miterlimit="10" stroke-width="2"/>
    </g>
    <path id="Path_18" data-name="Path 18" d="M293.239,701.369H270.372a3.479,3.479,0,0,1-3.407-4.18l3.579-17.386a1.739,1.739,0,0,0-1.7-2.09h-3.432" fill="none" stroke="#b4bed5" stroke-miterlimit="10" stroke-width="2"/>
    <path id="Path_19" data-name="Path 19" d="M299.554,702.713h21.437a1.739,1.739,0,0,1,1.693,2.14l-2.339,9.876a1.739,1.739,0,0,1-1.515,1.329l-22.242,2.279" transform="translate(-26.84 -21.521)" fill="none" stroke="#b4bed5" stroke-miterlimit="10" stroke-width="2"/>
    <line id="Line_1" data-name="Line 1" x1="3.283" y2="13.538" transform="translate(287.489 681.192)" fill="none" stroke="#b4bed5" stroke-miterlimit="10" stroke-width="2"/>
    <line id="Line_2" data-name="Line 2" x1="3.253" y2="14.234" transform="translate(281.104 681.192)" fill="none" stroke="#b4bed5" stroke-miterlimit="10" stroke-width="2"/>
    <line id="Line_3" data-name="Line 3" x1="3.412" y2="14.93" transform="translate(274.575 681.192)" fill="none" stroke="#b4bed5" stroke-miterlimit="10" stroke-width="2"/>
    <line id="Line_4" data-name="Line 4" x1="23.308" y2="0.696" transform="translate(271.486 687.772)" fill="none" stroke="#b4bed5" stroke-miterlimit="10" stroke-width="2"/>
  </g>
</svg>
